<svg xmlns="http://www.w3.org/2000/svg" width="512" height="512" viewBox="0 0 512 512" fill="none">
<defs>
  <linearGradient id="bg4" x1="80" y1="80" x2="430" y2="430" gradientUnits="userSpaceOnUse">
    <stop offset="0" stop-color="#0B1020"/>
    <stop offset="1" stop-color="#020617"/>
  </linearGradient>
  <filter id="glow" x="-60%" y="-60%" width="220%" height="220%" color-interpolation-filters="sRGB">
    <feDropShadow dx="0" dy="0" stdDeviation="10" flood-color="#38BDF8" flood-opacity="0.35"/>
  </filter>
  <filter id="shadow4" x="-40%" y="-40%" width="180%" height="180%" color-interpolation-filters="sRGB">
    <feDropShadow dx="0" dy="14" stdDeviation="12" flood-color="#000000" flood-opacity="0.45"/>
  </filter>
</defs>
<rect x="32" y="32" width="448" height="448" rx="96" fill="url(#bg4)"/>
<g opacity="0.95"><rect x="112" y="112" width="288" height="288" rx="56" fill="#0F172A" opacity="0.70" /><g><rect x="126" y="126" width="260" height="260" rx="20.8" ry="20.8" stroke="#F8FAFC" stroke-width="8" fill="none"/><line x1="178.0" y1="126" x2="178.0" y2="386" stroke="#F8FAFC" stroke-width="4.8" stroke-linecap="round"/><line x1="126" y1="178.0" x2="386" y2="178.0" stroke="#F8FAFC" stroke-width="4.8" stroke-linecap="round"/><line x1="230.0" y1="126" x2="230.0" y2="386" stroke="#F8FAFC" stroke-width="4.8" stroke-linecap="round"/><line x1="126" y1="230.0" x2="386" y2="230.0" stroke="#F8FAFC" stroke-width="4.8" stroke-linecap="round"/><line x1="282.0" y1="126" x2="282.0" y2="386" stroke="#F8FAFC" stroke-width="4.8" stroke-linecap="round"/><line x1="126" y1="282.0" x2="386" y2="282.0" stroke="#F8FAFC" stroke-width="4.8" stroke-linecap="round"/><line x1="334.0" y1="126" x2="334.0" y2="386" stroke="#F8FAFC" stroke-width="4.8" stroke-linecap="round"/><line x1="126" y1="334.0" x2="386" y2="334.0" stroke="#F8FAFC" stroke-width="4.8" stroke-linecap="round"/></g><rect x="136.0" y="136.0" width="32.0" height="32.0" rx="14" fill="#38BDF8" opacity="0.95"/><rect x="240.0" y="240.0" width="32.0" height="32.0" rx="14" fill="#A7F3D0" opacity="0.95"/><rect x="344.0" y="344.0" width="32.0" height="32.0" rx="14" fill="#38BDF8" opacity="0.95"/></g>
<g filter="url(#glow)">
  <path d="M210 160 L150 256 L210 352" stroke="#38BDF8" stroke-width="18" stroke-linecap="round" stroke-linejoin="round"/>
  <path d="M302 160 L362 256 L302 352" stroke="#38BDF8" stroke-width="18" stroke-linecap="round" stroke-linejoin="round"/>
  <path d="M256 160 L256 352" stroke="#A7F3D0" stroke-width="14" stroke-linecap="round" opacity="0.9"/>
</g>

<g filter="url(#shadow4)" opacity="0.95">
  <polygon points="281.68,260.07 272.04,264.17 274.38,274.38 264.17,272.04 260.07,281.68 253.18,273.78 244.20,279.17 243.27,268.73 232.83,267.80 238.22,258.82 230.32,251.93 239.96,247.83 237.62,237.62 247.83,239.96 251.93,230.32 258.82,238.22 267.80,232.83 268.73,243.27 279.17,244.20 273.78,253.18" fill="#A7F3D0"/>
  <circle cx="256" cy="256" r="10" fill="#020617"/>
</g>

<g opacity="0.35">
  <circle cx="120" cy="380" r="5" fill="#F8FAFC"/>
  <circle cx="390" cy="140" r="4" fill="#F8FAFC"/>
</g>
</svg>